<svg width="871" height="129" viewBox="0 0 871 129" fill="none" xmlns="http://www.w3.org/2000/svg">
<g filter="url(#filter0_d_1_67)">
<path d="M4.20098 119V14H28.501V119H4.20098ZM100.82 37.1C107.22 37.1 112.92 38.4 117.92 41C123.02 43.5 127.02 47.4 129.92 52.7C132.82 57.9 134.27 64.6 134.27 72.8V119H110.87V76.4C110.87 69.9 109.42 65.1 106.52 62C103.72 58.9 99.7197 57.35 94.5197 57.35C90.8197 57.35 87.4697 58.15 84.4697 59.75C81.5697 61.25 79.2697 63.6 77.5697 66.8C75.9697 70 75.1697 74.1 75.1697 79.1V119H51.7697V38.3H74.1197V60.65L69.9197 53.9C72.8197 48.5 76.9697 44.35 82.3697 41.45C87.7697 38.55 93.9197 37.1 100.82 37.1ZM182.631 120.2C175.731 120.2 169.081 119.4 162.681 117.8C156.381 116.1 151.381 114 147.681 111.5L155.481 94.7C159.181 97 163.531 98.9 168.531 100.4C173.631 101.8 178.631 102.5 183.531 102.5C188.931 102.5 192.731 101.85 194.931 100.55C197.231 99.25 198.381 97.45 198.381 95.15C198.381 93.25 197.481 91.85 195.681 90.95C193.981 89.95 191.681 89.2 188.781 88.7C185.881 88.2 182.681 87.7 179.181 87.2C175.781 86.7 172.331 86.05 168.831 85.25C165.331 84.35 162.131 83.05 159.231 81.35C156.331 79.65 153.981 77.35 152.181 74.45C150.481 71.55 149.631 67.8 149.631 63.2C149.631 58.1 151.081 53.6 153.981 49.7C156.981 45.8 161.281 42.75 166.881 40.55C172.481 38.25 179.181 37.1 186.981 37.1C192.481 37.1 198.081 37.7 203.781 38.9C209.481 40.1 214.231 41.85 218.031 44.15L210.231 60.8C206.331 58.5 202.381 56.95 198.381 56.15C194.481 55.25 190.681 54.8 186.981 54.8C181.781 54.8 177.981 55.5 175.581 56.9C173.181 58.3 171.981 60.1 171.981 62.3C171.981 64.3 172.831 65.8 174.531 66.8C176.331 67.8 178.681 68.6 181.581 69.2C184.481 69.8 187.631 70.35 191.031 70.85C194.531 71.25 198.031 71.9 201.531 72.8C205.031 73.7 208.181 75 210.981 76.7C213.881 78.3 216.231 80.55 218.031 83.45C219.831 86.25 220.731 89.95 220.731 94.55C220.731 99.55 219.231 104 216.231 107.9C213.231 111.7 208.881 114.7 203.181 116.9C197.581 119.1 190.731 120.2 182.631 120.2ZM268.168 120.2C258.668 120.2 251.268 117.8 245.968 113C240.668 108.1 238.018 100.85 238.018 91.25V20.45H261.418V90.95C261.418 94.35 262.318 97 264.118 98.9C265.918 100.7 268.368 101.6 271.468 101.6C275.168 101.6 278.318 100.6 280.918 98.6L287.218 115.1C284.818 116.8 281.918 118.1 278.518 119C275.218 119.8 271.768 120.2 268.168 120.2ZM225.568 58.1V40.1H281.518V58.1H225.568ZM349.854 119V103.25L348.354 99.8V71.6C348.354 66.6 346.804 62.7 343.704 59.9C340.704 57.1 336.054 55.7 329.754 55.7C325.454 55.7 321.204 56.4 317.004 57.8C312.904 59.1 309.404 60.9 306.504 63.2L298.104 46.85C302.504 43.75 307.804 41.35 314.004 39.65C320.204 37.95 326.504 37.1 332.904 37.1C345.204 37.1 354.754 40 361.554 45.8C368.354 51.6 371.754 60.65 371.754 72.95V119H349.854ZM325.254 120.2C318.954 120.2 313.554 119.15 309.054 117.05C304.554 114.85 301.104 111.9 298.704 108.2C296.304 104.5 295.104 100.35 295.104 95.75C295.104 90.95 296.254 86.75 298.554 83.15C300.954 79.55 304.704 76.75 309.804 74.75C314.904 72.65 321.554 71.6 329.754 71.6H351.204V85.25H332.304C326.804 85.25 323.004 86.15 320.904 87.95C318.904 89.75 317.904 92 317.904 94.7C317.904 97.7 319.054 100.1 321.354 101.9C323.754 103.6 327.004 104.45 331.104 104.45C335.004 104.45 338.504 103.55 341.604 101.75C344.704 99.85 346.954 97.1 348.354 93.5L351.954 104.3C350.254 109.5 347.154 113.45 342.654 116.15C338.154 118.85 332.354 120.2 325.254 120.2ZM392.932 119V7.69999H416.332V119H392.932ZM438.049 119V7.69999H461.449V119H438.049ZM532.666 119V103.25L531.166 99.8V71.6C531.166 66.6 529.616 62.7 526.516 59.9C523.516 57.1 518.866 55.7 512.566 55.7C508.266 55.7 504.016 56.4 499.816 57.8C495.716 59.1 492.216 60.9 489.316 63.2L480.916 46.85C485.316 43.75 490.616 41.35 496.816 39.65C503.016 37.95 509.316 37.1 515.716 37.1C528.016 37.1 537.566 40 544.366 45.8C551.166 51.6 554.566 60.65 554.566 72.95V119H532.666ZM508.066 120.2C501.766 120.2 496.366 119.15 491.866 117.05C487.366 114.85 483.916 111.9 481.516 108.2C479.116 104.5 477.916 100.35 477.916 95.75C477.916 90.95 479.066 86.75 481.366 83.15C483.766 79.55 487.516 76.75 492.616 74.75C497.716 72.65 504.366 71.6 512.566 71.6H534.016V85.25H515.116C509.616 85.25 505.816 86.15 503.716 87.95C501.716 89.75 500.716 92 500.716 94.7C500.716 97.7 501.866 100.1 504.166 101.9C506.566 103.6 509.816 104.45 513.916 104.45C517.816 104.45 521.316 103.55 524.416 101.75C527.516 99.85 529.766 97.1 531.166 93.5L534.766 104.3C533.066 109.5 529.966 113.45 525.466 116.15C520.966 118.85 515.166 120.2 508.066 120.2ZM608.744 120.2C599.244 120.2 591.844 117.8 586.544 113C581.244 108.1 578.594 100.85 578.594 91.25V20.45H601.994V90.95C601.994 94.35 602.894 97 604.694 98.9C606.494 100.7 608.944 101.6 612.044 101.6C615.744 101.6 618.894 100.6 621.494 98.6L627.794 115.1C625.394 116.8 622.494 118.1 619.094 119C615.794 119.8 612.344 120.2 608.744 120.2ZM566.144 58.1V40.1H622.094V58.1H566.144ZM640.93 119V38.3H664.33V119H640.93ZM652.63 27.05C648.33 27.05 644.83 25.8 642.13 23.3C639.43 20.8 638.08 17.7 638.08 14C638.08 10.3 639.43 7.19999 642.13 4.7C644.83 2.19999 648.33 0.949991 652.63 0.949991C656.93 0.949991 660.43 2.14999 663.13 4.55C665.83 6.85 667.18 9.85 667.18 13.55C667.18 17.45 665.83 20.7 663.13 23.3C660.53 25.8 657.03 27.05 652.63 27.05ZM724.447 120.2C715.847 120.2 708.197 118.4 701.497 114.8C694.897 111.2 689.647 106.3 685.747 100.1C681.947 93.8 680.047 86.65 680.047 78.65C680.047 70.55 681.947 63.4 685.747 57.2C689.647 50.9 694.897 46 701.497 42.5C708.197 38.9 715.847 37.1 724.447 37.1C732.947 37.1 740.547 38.9 747.247 42.5C753.947 46 759.197 50.85 762.997 57.05C766.797 63.25 768.697 70.45 768.697 78.65C768.697 86.65 766.797 93.8 762.997 100.1C759.197 106.3 753.947 111.2 747.247 114.8C740.547 118.4 732.947 120.2 724.447 120.2ZM724.447 101C728.347 101 731.847 100.1 734.947 98.3C738.047 96.5 740.497 93.95 742.297 90.65C744.097 87.25 744.997 83.25 744.997 78.65C744.997 73.95 744.097 69.95 742.297 66.65C740.497 63.35 738.047 60.8 734.947 59C731.847 57.2 728.347 56.3 724.447 56.3C720.547 56.3 717.047 57.2 713.947 59C710.847 60.8 708.347 63.35 706.447 66.65C704.647 69.95 703.747 73.95 703.747 78.65C703.747 83.25 704.647 87.25 706.447 90.65C708.347 93.95 710.847 96.5 713.947 98.3C717.047 100.1 720.547 101 724.447 101ZM833.388 37.1C839.788 37.1 845.488 38.4 850.488 41C855.588 43.5 859.588 47.4 862.488 52.7C865.388 57.9 866.838 64.6 866.838 72.8V119H843.438V76.4C843.438 69.9 841.988 65.1 839.088 62C836.288 58.9 832.288 57.35 827.088 57.35C823.388 57.35 820.038 58.15 817.038 59.75C814.138 61.25 811.838 63.6 810.138 66.8C808.538 70 807.738 74.1 807.738 79.1V119H784.338V38.3H806.688V60.65L802.488 53.9C805.388 48.5 809.538 44.35 814.938 41.45C820.338 38.55 826.488 37.1 833.388 37.1Z" fill="#219C90"/>
</g>
<defs>
<filter id="filter0_d_1_67" x="0.200974" y="0.949951" width="870.637" height="127.25" filterUnits="userSpaceOnUse" color-interpolation-filters="sRGB">
<feFlood flood-opacity="0" result="BackgroundImageFix"/>
<feColorMatrix in="SourceAlpha" type="matrix" values="0 0 0 0 0 0 0 0 0 0 0 0 0 0 0 0 0 0 127 0" result="hardAlpha"/>
<feOffset dy="4"/>
<feGaussianBlur stdDeviation="2"/>
<feComposite in2="hardAlpha" operator="out"/>
<feColorMatrix type="matrix" values="0 0 0 0 0 0 0 0 0 0 0 0 0 0 0 0 0 0 0.25 0"/>
<feBlend mode="normal" in2="BackgroundImageFix" result="effect1_dropShadow_1_67"/>
<feBlend mode="normal" in="SourceGraphic" in2="effect1_dropShadow_1_67" result="shape"/>
</filter>
</defs>
</svg>
