<svg width="881" height="274" viewBox="0 0 881 274" fill="none" xmlns="http://www.w3.org/2000/svg">
<path d="M0.149337 107V12.5H41.0543C49.5143 12.5 56.8043 13.895 62.9243 16.685C69.0443 19.385 73.7693 23.3 77.0993 28.43C80.4293 33.56 82.0943 39.68 82.0943 46.79C82.0943 53.81 80.4293 59.885 77.0993 65.015C73.7693 70.055 69.0443 73.925 62.9243 76.625C56.8043 79.325 49.5143 80.675 41.0543 80.675H12.2993L22.0193 71.09V107H0.149337ZM60.2243 107L36.5993 72.71H59.9543L83.8493 107H60.2243ZM22.0193 73.52L12.2993 63.26H39.8393C46.5893 63.26 51.6293 61.82 54.9593 58.94C58.2893 55.97 59.9543 51.92 59.9543 46.79C59.9543 41.57 58.2893 37.52 54.9593 34.64C51.6293 31.76 46.5893 30.32 39.8393 30.32H12.2993L22.0193 19.925V73.52ZM133.982 108.08C125.702 108.08 118.412 106.46 112.112 103.22C105.902 99.98 101.087 95.57 97.6668 89.99C94.2468 84.32 92.5368 77.885 92.5368 70.685C92.5368 63.395 94.2018 56.96 97.5318 51.38C100.952 45.71 105.587 41.3 111.437 38.15C117.287 34.91 123.902 33.29 131.282 33.29C138.392 33.29 144.782 34.82 150.452 37.88C156.212 40.85 160.757 45.17 164.087 50.84C167.417 56.42 169.082 63.125 169.082 70.955C169.082 71.765 169.037 72.71 168.947 73.79C168.857 74.78 168.767 75.725 168.677 76.625H109.682V64.34H157.607L149.507 67.985C149.507 64.205 148.742 60.92 147.212 58.13C145.682 55.34 143.567 53.18 140.867 51.65C138.167 50.03 135.017 49.22 131.417 49.22C127.817 49.22 124.622 50.03 121.832 51.65C119.132 53.18 117.017 55.385 115.487 58.265C113.957 61.055 113.192 64.385 113.192 68.255V71.495C113.192 75.455 114.047 78.965 115.757 82.025C117.557 84.995 120.032 87.29 123.182 88.91C126.422 90.44 130.202 91.205 134.522 91.205C138.392 91.205 141.767 90.62 144.647 89.45C147.617 88.28 150.317 86.525 152.747 84.185L163.952 96.335C160.622 100.115 156.437 103.04 151.397 105.11C146.357 107.09 140.552 108.08 133.982 108.08ZM183.103 107V6.82999H204.163V107H183.103ZM258.268 108.08C250.528 108.08 243.643 106.46 237.613 103.22C231.673 99.98 226.948 95.57 223.438 89.99C220.018 84.32 218.308 77.885 218.308 70.685C218.308 63.395 220.018 56.96 223.438 51.38C226.948 45.71 231.673 41.3 237.613 38.15C243.643 34.91 250.528 33.29 258.268 33.29C265.918 33.29 272.758 34.91 278.788 38.15C284.818 41.3 289.543 45.665 292.963 51.245C296.383 56.825 298.093 63.305 298.093 70.685C298.093 77.885 296.383 84.32 292.963 89.99C289.543 95.57 284.818 99.98 278.788 103.22C272.758 106.46 265.918 108.08 258.268 108.08ZM258.268 90.8C261.778 90.8 264.928 89.99 267.718 88.37C270.508 86.75 272.713 84.455 274.333 81.485C275.953 78.425 276.763 74.825 276.763 70.685C276.763 66.455 275.953 62.855 274.333 59.885C272.713 56.915 270.508 54.62 267.718 53C264.928 51.38 261.778 50.57 258.268 50.57C254.758 50.57 251.608 51.38 248.818 53C246.028 54.62 243.778 56.915 242.068 59.885C240.448 62.855 239.638 66.455 239.638 70.685C239.638 74.825 240.448 78.425 242.068 81.485C243.778 84.455 246.028 86.75 248.818 88.37C251.608 89.99 254.758 90.8 258.268 90.8ZM347.27 108.08C339.44 108.08 332.465 106.505 326.345 103.355C320.225 100.115 315.41 95.66 311.9 89.99C308.48 84.32 306.77 77.885 306.77 70.685C306.77 63.395 308.48 56.96 311.9 51.38C315.41 45.71 320.225 41.3 326.345 38.15C332.465 34.91 339.44 33.29 347.27 33.29C354.92 33.29 361.58 34.91 367.25 38.15C372.92 41.3 377.105 45.845 379.805 51.785L363.47 60.56C361.58 57.14 359.195 54.62 356.315 53C353.525 51.38 350.465 50.57 347.135 50.57C343.535 50.57 340.295 51.38 337.415 53C334.535 54.62 332.24 56.915 330.53 59.885C328.91 62.855 328.1 66.455 328.1 70.685C328.1 74.915 328.91 78.515 330.53 81.485C332.24 84.455 334.535 86.75 337.415 88.37C340.295 89.99 343.535 90.8 347.135 90.8C350.465 90.8 353.525 90.035 356.315 88.505C359.195 86.885 361.58 84.32 363.47 80.81L379.805 89.72C377.105 95.57 372.92 100.115 367.25 103.355C361.58 106.505 354.92 108.08 347.27 108.08ZM436.481 107V92.825L435.131 89.72V64.34C435.131 59.84 433.736 56.33 430.946 53.81C428.246 51.29 424.061 50.03 418.391 50.03C414.521 50.03 410.696 50.66 406.916 51.92C403.226 53.09 400.076 54.71 397.466 56.78L389.906 42.065C393.866 39.275 398.636 37.115 404.216 35.585C409.796 34.055 415.466 33.29 421.226 33.29C432.296 33.29 440.891 35.9 447.011 41.12C453.131 46.34 456.191 54.485 456.191 65.555V107H436.481ZM414.341 108.08C408.671 108.08 403.811 107.135 399.761 105.245C395.711 103.265 392.606 100.61 390.446 97.28C388.286 93.95 387.206 90.215 387.206 86.075C387.206 81.755 388.241 77.975 390.311 74.735C392.471 71.495 395.846 68.975 400.436 67.175C405.026 65.285 411.011 64.34 418.391 64.34H437.696V76.625H420.686C415.736 76.625 412.316 77.435 410.426 79.055C408.626 80.675 407.726 82.7 407.726 85.13C407.726 87.83 408.761 89.99 410.831 91.61C412.991 93.14 415.916 93.905 419.606 93.905C423.116 93.905 426.266 93.095 429.056 91.475C431.846 89.765 433.871 87.29 435.131 84.05L438.371 93.77C436.841 98.45 434.051 102.005 430.001 104.435C425.951 106.865 420.731 108.08 414.341 108.08ZM504.951 108.08C496.401 108.08 489.741 105.92 484.971 101.6C480.201 97.19 477.816 90.665 477.816 82.025V18.305H498.876V81.755C498.876 84.815 499.686 87.2 501.306 88.91C502.926 90.53 505.131 91.34 507.921 91.34C511.251 91.34 514.086 90.44 516.426 88.64L522.096 103.49C519.936 105.02 517.326 106.19 514.266 107C511.296 107.72 508.191 108.08 504.951 108.08ZM466.611 52.19V35.99H516.966V52.19H466.611ZM533.918 107V34.37H554.978V107H533.918ZM544.448 24.245C540.578 24.245 537.428 23.12 534.998 20.87C532.568 18.62 531.353 15.83 531.353 12.5C531.353 9.16999 532.568 6.37999 534.998 4.13C537.428 1.87999 540.578 0.754992 544.448 0.754992C548.318 0.754992 551.468 1.83499 553.898 3.995C556.328 6.065 557.543 8.765 557.543 12.095C557.543 15.605 556.328 18.53 553.898 20.87C551.558 23.12 548.408 24.245 544.448 24.245ZM609.084 108.08C601.344 108.08 594.459 106.46 588.429 103.22C582.489 99.98 577.764 95.57 574.254 89.99C570.834 84.32 569.124 77.885 569.124 70.685C569.124 63.395 570.834 56.96 574.254 51.38C577.764 45.71 582.489 41.3 588.429 38.15C594.459 34.91 601.344 33.29 609.084 33.29C616.734 33.29 623.574 34.91 629.604 38.15C635.634 41.3 640.359 45.665 643.779 51.245C647.199 56.825 648.909 63.305 648.909 70.685C648.909 77.885 647.199 84.32 643.779 89.99C640.359 95.57 635.634 99.98 629.604 103.22C623.574 106.46 616.734 108.08 609.084 108.08ZM609.084 90.8C612.594 90.8 615.744 89.99 618.534 88.37C621.324 86.75 623.529 84.455 625.149 81.485C626.769 78.425 627.579 74.825 627.579 70.685C627.579 66.455 626.769 62.855 625.149 59.885C623.529 56.915 621.324 54.62 618.534 53C615.744 51.38 612.594 50.57 609.084 50.57C605.574 50.57 602.424 51.38 599.634 53C596.844 54.62 594.594 56.915 592.884 59.885C591.264 62.855 590.454 66.455 590.454 70.685C590.454 74.825 591.264 78.425 592.884 81.485C594.594 84.455 596.844 86.75 599.634 88.37C602.424 89.99 605.574 90.8 609.084 90.8ZM707.131 33.29C712.891 33.29 718.021 34.46 722.521 36.8C727.111 39.05 730.711 42.56 733.321 47.33C735.931 52.01 737.236 58.04 737.236 65.42V107H716.176V68.66C716.176 62.81 714.871 58.49 712.261 55.7C709.741 52.91 706.141 51.515 701.461 51.515C698.131 51.515 695.116 52.235 692.416 53.675C689.806 55.025 687.736 57.14 686.206 60.02C684.766 62.9 684.046 66.59 684.046 71.09V107H662.986V34.37H683.101V54.485L679.321 48.41C681.931 43.55 685.666 39.815 690.526 37.205C695.386 34.595 700.921 33.29 707.131 33.29ZM825.743 108.62C818.813 108.62 812.648 107.495 807.248 105.245C801.848 102.995 797.573 99.935 794.423 96.065C791.273 92.195 789.698 87.74 789.698 82.7C789.698 78.02 790.733 73.835 792.803 70.145C794.873 66.365 798.158 62.855 802.658 59.615C807.158 56.285 812.873 53.045 819.803 49.895C824.843 47.555 828.803 45.485 831.683 43.685C834.563 41.885 836.588 40.175 837.758 38.555C838.928 36.845 839.513 35.135 839.513 33.425C839.513 31.085 838.703 29.195 837.083 27.755C835.553 26.315 833.258 25.595 830.198 25.595C826.958 25.595 824.438 26.405 822.638 28.025C820.838 29.645 819.938 31.715 819.938 34.235C819.938 35.585 820.208 36.935 820.748 38.285C821.288 39.545 822.323 41.03 823.853 42.74C825.383 44.36 827.543 46.475 830.333 49.085L880.148 95.255L868.673 108.62L813.728 57.59C810.578 54.71 808.058 52.01 806.168 49.49C804.278 46.97 802.883 44.495 801.983 42.065C801.173 39.635 800.768 37.115 800.768 34.505C800.768 29.915 801.983 25.865 804.413 22.355C806.843 18.845 810.263 16.145 814.673 14.255C819.083 12.275 824.258 11.285 830.198 11.285C835.688 11.285 840.413 12.185 844.373 13.985C848.423 15.695 851.573 18.17 853.823 21.41C856.163 24.65 857.333 28.52 857.333 33.02C857.333 36.98 856.343 40.625 854.363 43.955C852.383 47.195 849.278 50.255 845.048 53.135C840.908 56.015 835.463 58.94 828.713 61.91C824.123 63.98 820.478 66.005 817.778 67.985C815.168 69.875 813.278 71.81 812.108 73.79C810.938 75.77 810.353 77.975 810.353 80.405C810.353 82.655 811.028 84.68 812.378 86.48C813.818 88.28 815.798 89.675 818.318 90.665C820.838 91.655 823.808 92.15 827.228 92.15C832.718 92.15 837.758 90.89 842.348 88.37C846.938 85.76 850.808 81.935 853.958 76.895C857.198 71.765 859.493 65.555 860.843 58.265L877.718 63.53C875.828 72.71 872.453 80.675 867.593 87.425C862.733 94.175 856.748 99.395 849.638 103.085C842.528 106.775 834.563 108.62 825.743 108.62ZM83.9311 272V177.5H126.861C137.121 177.5 146.166 179.48 153.996 183.44C161.826 187.31 167.946 192.755 172.356 199.775C176.766 206.795 178.971 215.12 178.971 224.75C178.971 234.29 176.766 242.615 172.356 249.725C167.946 256.745 161.826 262.235 153.996 266.195C146.166 270.065 137.121 272 126.861 272H83.9311ZM105.801 254.045H125.781C132.081 254.045 137.526 252.875 142.116 250.535C146.796 248.105 150.396 244.685 152.916 240.275C155.526 235.865 156.831 230.69 156.831 224.75C156.831 218.72 155.526 213.545 152.916 209.225C150.396 204.815 146.796 201.44 142.116 199.1C137.526 196.67 132.081 195.455 125.781 195.455H105.801V254.045ZM193.979 272V199.37H215.039V272H193.979ZM204.509 189.245C200.639 189.245 197.489 188.12 195.059 185.87C192.629 183.62 191.414 180.83 191.414 177.5C191.414 174.17 192.629 171.38 195.059 169.13C197.489 166.88 200.639 165.755 204.509 165.755C208.379 165.755 211.529 166.835 213.959 168.995C216.389 171.065 217.604 173.765 217.604 177.095C217.604 180.605 216.389 183.53 213.959 185.87C211.619 188.12 208.469 189.245 204.509 189.245ZM259.02 273.08C252.81 273.08 246.825 272.36 241.065 270.92C235.395 269.39 230.895 267.5 227.565 265.25L234.585 250.13C237.915 252.2 241.83 253.91 246.33 255.26C250.92 256.52 255.42 257.15 259.83 257.15C264.69 257.15 268.11 256.565 270.09 255.395C272.16 254.225 273.195 252.605 273.195 250.535C273.195 248.825 272.385 247.565 270.765 246.755C269.235 245.855 267.165 245.18 264.555 244.73C261.945 244.28 259.065 243.83 255.915 243.38C252.855 242.93 249.75 242.345 246.6 241.625C243.45 240.815 240.57 239.645 237.96 238.115C235.35 236.585 233.235 234.515 231.615 231.905C230.085 229.295 229.32 225.92 229.32 221.78C229.32 217.19 230.625 213.14 233.235 209.63C235.935 206.12 239.805 203.375 244.845 201.395C249.885 199.325 255.915 198.29 262.935 198.29C267.885 198.29 272.925 198.83 278.055 199.91C283.185 200.99 287.46 202.565 290.88 204.635L283.86 219.62C280.35 217.55 276.795 216.155 273.195 215.435C269.685 214.625 266.265 214.22 262.935 214.22C258.255 214.22 254.835 214.85 252.675 216.11C250.515 217.37 249.435 218.99 249.435 220.97C249.435 222.77 250.2 224.12 251.73 225.02C253.35 225.92 255.465 226.64 258.075 227.18C260.685 227.72 263.52 228.215 266.58 228.665C269.73 229.025 272.88 229.61 276.03 230.42C279.18 231.23 282.015 232.4 284.535 233.93C287.145 235.37 289.26 237.395 290.88 240.005C292.5 242.525 293.31 245.855 293.31 249.995C293.31 254.495 291.96 258.5 289.26 262.01C286.56 265.43 282.645 268.13 277.515 270.11C272.475 272.09 266.31 273.08 259.02 273.08ZM399.319 198.29C405.079 198.29 410.164 199.46 414.573 201.8C419.073 204.05 422.583 207.56 425.103 212.33C427.714 217.01 429.019 223.04 429.019 230.42V272H407.959V233.66C407.959 227.81 406.744 223.49 404.314 220.7C401.884 217.91 398.464 216.515 394.054 216.515C390.994 216.515 388.248 217.235 385.818 218.675C383.388 220.025 381.498 222.095 380.148 224.885C378.798 227.675 378.124 231.23 378.124 235.55V272H357.063V233.66C357.063 227.81 355.848 223.49 353.419 220.7C351.078 217.91 347.703 216.515 343.293 216.515C340.233 216.515 337.488 217.235 335.058 218.675C332.628 220.025 330.738 222.095 329.388 224.885C328.038 227.675 327.363 231.23 327.363 235.55V272H306.303V199.37H326.418V219.215L322.638 213.41C325.158 208.46 328.713 204.725 333.303 202.205C337.983 199.595 343.293 198.29 349.233 198.29C355.893 198.29 361.698 200 366.649 203.42C371.689 206.75 375.019 211.88 376.639 218.81L369.214 216.785C371.643 211.115 375.513 206.615 380.823 203.285C386.223 199.955 392.388 198.29 399.319 198.29ZM492.445 272V257.825L491.095 254.72V229.34C491.095 224.84 489.7 221.33 486.91 218.81C484.21 216.29 480.025 215.03 474.355 215.03C470.485 215.03 466.66 215.66 462.88 216.92C459.19 218.09 456.04 219.71 453.43 221.78L445.87 207.065C449.83 204.275 454.6 202.115 460.18 200.585C465.76 199.055 471.43 198.29 477.19 198.29C488.26 198.29 496.855 200.9 502.975 206.12C509.095 211.34 512.155 219.485 512.155 230.555V272H492.445ZM470.305 273.08C464.635 273.08 459.775 272.135 455.725 270.245C451.675 268.265 448.57 265.61 446.41 262.28C444.25 258.95 443.17 255.215 443.17 251.075C443.17 246.755 444.205 242.975 446.275 239.735C448.435 236.495 451.81 233.975 456.4 232.175C460.99 230.285 466.975 229.34 474.355 229.34H493.66V241.625H476.65C471.7 241.625 468.28 242.435 466.39 244.055C464.59 245.675 463.69 247.7 463.69 250.13C463.69 252.83 464.725 254.99 466.795 256.61C468.955 258.14 471.88 258.905 475.57 258.905C479.08 258.905 482.23 258.095 485.02 256.475C487.81 254.765 489.835 252.29 491.095 249.05L494.335 258.77C492.805 263.45 490.015 267.005 485.965 269.435C481.915 271.865 476.695 273.08 470.305 273.08ZM575.361 198.29C581.121 198.29 586.251 199.46 590.751 201.8C595.341 204.05 598.941 207.56 601.551 212.33C604.161 217.01 605.466 223.04 605.466 230.42V272H584.406V233.66C584.406 227.81 583.101 223.49 580.491 220.7C577.971 217.91 574.371 216.515 569.691 216.515C566.361 216.515 563.346 217.235 560.646 218.675C558.036 220.025 555.966 222.14 554.436 225.02C552.996 227.9 552.276 231.59 552.276 236.09V272H531.216V199.37H551.331V219.485L547.551 213.41C550.161 208.55 553.896 204.815 558.756 202.205C563.616 199.595 569.151 198.29 575.361 198.29ZM654.255 273.08C645.705 273.08 639.045 270.92 634.275 266.6C629.505 262.19 627.12 255.665 627.12 247.025V183.305H648.18V246.755C648.18 249.815 648.99 252.2 650.61 253.91C652.23 255.53 654.435 256.34 657.225 256.34C660.555 256.34 663.39 255.44 665.73 253.64L671.4 268.49C669.24 270.02 666.63 271.19 663.57 272C660.6 272.72 657.495 273.08 654.255 273.08ZM615.915 217.19V200.99H666.27V217.19H615.915ZM683.222 272V171.83H704.282V272H683.222ZM759.873 273.08C751.593 273.08 744.303 271.46 738.003 268.22C731.793 264.98 726.978 260.57 723.558 254.99C720.138 249.32 718.428 242.885 718.428 235.685C718.428 228.395 720.093 221.96 723.423 216.38C726.843 210.71 731.478 206.3 737.328 203.15C743.178 199.91 749.793 198.29 757.173 198.29C764.283 198.29 770.673 199.82 776.343 202.88C782.103 205.85 786.648 210.17 789.978 215.84C793.308 221.42 794.973 228.125 794.973 235.955C794.973 236.765 794.928 237.71 794.838 238.79C794.748 239.78 794.658 240.725 794.568 241.625H735.573V229.34H783.498L775.398 232.985C775.398 229.205 774.633 225.92 773.103 223.13C771.573 220.34 769.458 218.18 766.758 216.65C764.058 215.03 760.908 214.22 757.308 214.22C753.708 214.22 750.513 215.03 747.723 216.65C745.023 218.18 742.908 220.385 741.378 223.265C739.848 226.055 739.083 229.385 739.083 233.255V236.495C739.083 240.455 739.938 243.965 741.648 247.025C743.448 249.995 745.923 252.29 749.073 253.91C752.313 255.44 756.093 256.205 760.413 256.205C764.283 256.205 767.658 255.62 770.538 254.45C773.508 253.28 776.208 251.525 778.638 249.185L789.843 261.335C786.513 265.115 782.328 268.04 777.288 270.11C772.248 272.09 766.443 273.08 759.873 273.08Z" fill="#D83F31"/>
</svg>
